<svg width="24" height="28" viewBox="0 0 24 28" fill="none" xmlns="http://www.w3.org/2000/svg">
<path d="M12 14C12.825 14 13.5315 13.7256 14.1195 13.1768C14.7065 12.6289 15 11.97 15 11.2C15 10.43 14.7065 9.7706 14.1195 9.2218C13.5315 8.67393 12.825 8.4 12 8.4C11.175 8.4 10.469 8.67393 9.882 9.2218C9.294 9.7706 9 10.43 9 11.2C9 11.97 9.294 12.6289 9.882 13.1768C10.469 13.7256 11.175 14 12 14ZM12 28C7.975 24.8033 4.969 21.8339 2.982 19.0918C0.994 16.3506 0 13.8133 0 11.48C0 7.98 1.2065 5.19167 3.6195 3.115C6.0315 1.03833 8.825 0 12 0C15.175 0 17.9685 1.03833 20.3805 3.115C22.7935 5.19167 24 7.98 24 11.48C24 13.8133 23.0065 16.3506 21.0195 19.0918C19.0315 21.8339 16.025 24.8033 12 28Z" fill="#A91079"/>
</svg>
