<svg width="24" height="24" viewBox="0 0 24 24" fill="none" xmlns="http://www.w3.org/2000/svg">
<g clip-path="url(#clip0_3_50)">
<path fill-rule="evenodd" clip-rule="evenodd" d="M2.82747 0.766507C3.08994 0.50444 3.4051 0.301144 3.75207 0.170092C4.09904 0.0390392 4.46991 -0.0167773 4.84008 0.00634104C5.21026 0.0294594 5.5713 0.130985 5.89927 0.304189C6.22724 0.477393 6.51466 0.718321 6.74247 1.01101L9.43497 4.47001C9.92847 5.10451 10.1025 5.93101 9.90747 6.71101L9.08697 9.99601C9.04455 10.1662 9.04684 10.3444 9.09363 10.5134C9.14041 10.6824 9.23009 10.8364 9.35397 10.9605L13.0395 14.646C13.1637 14.7701 13.318 14.86 13.4873 14.9068C13.6566 14.9536 13.8351 14.9557 14.0055 14.913L17.289 14.0925C17.6739 13.9963 18.0757 13.9888 18.4639 14.0706C18.8521 14.1525 19.2167 14.3215 19.53 14.565L22.989 17.256C24.2325 18.2235 24.3465 20.061 23.2335 21.1725L21.6825 22.7235C20.5725 23.8335 18.9135 24.321 17.367 23.7765C13.4087 22.3838 9.81488 20.1178 6.85197 17.1465C3.88091 14.184 1.61489 10.5907 0.221974 6.63301C-0.321026 5.08801 0.166474 3.42751 1.27647 2.31751L2.82747 0.766507Z" fill="#A91079"/>
</g>
<defs>
<clipPath id="clip0_3_50">
<rect width="24" height="24" fill="white"/>
</clipPath>
</defs>
</svg>
