<svg width="29" height="24" viewBox="0 0 29 24" fill="none" xmlns="http://www.w3.org/2000/svg">
<path d="M9.10962 24C20.0535 24 26.0402 14.7642 26.0402 6.76892C26.0402 6.51047 26.0402 6.24833 26.0293 5.98988C27.1949 5.13052 28.2008 4.06657 29 2.8479C27.9113 3.33683 26.7575 3.65906 25.5762 3.80415C26.8205 3.0466 27.7525 1.85466 28.1989 0.449871C27.0298 1.15529 25.7502 1.6505 24.4162 1.91379C23.5193 0.940965 22.3325 0.296497 21.0397 0.0802122C19.7468 -0.136072 18.4199 0.0878992 17.2647 0.717433C16.1094 1.34697 15.1902 2.34693 14.6494 3.56243C14.1087 4.77793 13.9765 6.14114 14.2734 7.44088C11.9077 7.32006 9.59323 6.69409 7.48027 5.60358C5.3673 4.51307 3.50299 2.98237 2.00825 1.11076C1.24943 2.44561 1.01785 4.02457 1.36055 5.52701C1.70324 7.02946 2.59451 8.34274 3.85337 9.20017C2.91004 9.16753 1.98744 8.90953 1.16 8.44698V8.53006C1.16163 9.92841 1.63724 11.2833 2.50646 12.3657C3.37567 13.4481 4.58517 14.1917 5.9305 14.4707C5.41985 14.6139 4.89235 14.6854 4.36269 14.683C3.98928 14.6841 3.61663 14.6489 3.24981 14.5777C3.63005 15.7815 4.37043 16.8339 5.36726 17.5877C6.36409 18.3414 7.56743 18.7588 8.80875 18.7812C6.70001 20.4681 4.09516 21.383 1.41375 21.3786C0.941269 21.3806 0.469117 21.3529 0 21.2955C2.7215 23.0627 5.8821 24.001 9.10962 24Z" fill="#EEEEEE"/>
</svg>
